<?xml version="1.0" encoding="UTF-8"?>
<svg id="Layer_2" data-name="Layer 2" xmlns="http://www.w3.org/2000/svg" viewBox="0 0 147.29 234.44">
  <defs>
    <style>
      .cls-1 {
        fill: #231f20;
      }
    </style>
  </defs>
  <g id="Layer_1-2" data-name="Layer 1">
    <polyline class="cls-1" points="106.35 106.35 106.35 136.47 24 56 24 160 47.06 182.59 46.59 213.65 0 168 0 0"/>
    <path class="cls-1" d="m102.12,47.33v11.86c0,1.88.75,3.68,2.07,5l19.85,19.85c1.33,1.33,2.07,3.13,2.07,5v82.24c0,6.29-7.58,9.45-12.05,5.03l-58.25-57.58c-4.47-4.42-12.05-1.25-12.05,5.03v12.17c0,1.85.72,3.63,2.02,4.95l89.38,91.41c4.43,4.54,12.14,1.4,12.14-4.95V78.67c0-1.86-.74-3.65-2.05-4.98l-31.02-31.35c-4.45-4.49-12.11-1.34-12.11,4.98Z"/>
  </g>
</svg>